%FSLAX24Y24*%
%MOIN*%
G70*
G01*
G75*
G04 Layer_Color=8388736*
%ADD10R,0.0413X0.0571*%
%ADD11O,0.0906X0.0236*%
%ADD12R,0.0571X0.0413*%
%ADD13R,0.0827X0.0846*%
%ADD14R,0.0433X0.0532*%
%ADD15C,0.0197*%
%ADD16C,0.0394*%
%ADD17C,0.0295*%
%ADD18C,0.0591*%
%ADD19C,0.0709*%
%ADD20C,0.1181*%
%ADD21C,0.0669*%
G04:AMPARAMS|DCode=22|XSize=78.7mil|YSize=78.7mil|CornerRadius=19.7mil|HoleSize=0mil|Usage=FLASHONLY|Rotation=270.000|XOffset=0mil|YOffset=0mil|HoleType=Round|Shape=RoundedRectangle|*
%AMROUNDEDRECTD22*
21,1,0.0787,0.0394,0,0,270.0*
21,1,0.0394,0.0787,0,0,270.0*
1,1,0.0394,-0.0197,-0.0197*
1,1,0.0394,-0.0197,0.0197*
1,1,0.0394,0.0197,0.0197*
1,1,0.0394,0.0197,-0.0197*
%
%ADD22ROUNDEDRECTD22*%
%ADD23C,0.0787*%
G04:AMPARAMS|DCode=24|XSize=70.9mil|YSize=70.9mil|CornerRadius=17.7mil|HoleSize=0mil|Usage=FLASHONLY|Rotation=0.000|XOffset=0mil|YOffset=0mil|HoleType=Round|Shape=RoundedRectangle|*
%AMROUNDEDRECTD24*
21,1,0.0709,0.0354,0,0,0.0*
21,1,0.0354,0.0709,0,0,0.0*
1,1,0.0354,0.0177,-0.0177*
1,1,0.0354,-0.0177,-0.0177*
1,1,0.0354,-0.0177,0.0177*
1,1,0.0354,0.0177,0.0177*
%
%ADD24ROUNDEDRECTD24*%
G04:AMPARAMS|DCode=25|XSize=70.9mil|YSize=70.9mil|CornerRadius=17.7mil|HoleSize=0mil|Usage=FLASHONLY|Rotation=270.000|XOffset=0mil|YOffset=0mil|HoleType=Round|Shape=RoundedRectangle|*
%AMROUNDEDRECTD25*
21,1,0.0709,0.0354,0,0,270.0*
21,1,0.0354,0.0709,0,0,270.0*
1,1,0.0354,-0.0177,-0.0177*
1,1,0.0354,-0.0177,0.0177*
1,1,0.0354,0.0177,0.0177*
1,1,0.0354,0.0177,-0.0177*
%
%ADD25ROUNDEDRECTD25*%
%ADD26C,0.0591*%
%ADD27O,0.0787X0.0630*%
%ADD28C,0.0630*%
G04:AMPARAMS|DCode=29|XSize=63mil|YSize=63mil|CornerRadius=15.7mil|HoleSize=0mil|Usage=FLASHONLY|Rotation=180.000|XOffset=0mil|YOffset=0mil|HoleType=Round|Shape=RoundedRectangle|*
%AMROUNDEDRECTD29*
21,1,0.0630,0.0315,0,0,180.0*
21,1,0.0315,0.0630,0,0,180.0*
1,1,0.0315,-0.0157,0.0157*
1,1,0.0315,0.0157,0.0157*
1,1,0.0315,0.0157,-0.0157*
1,1,0.0315,-0.0157,-0.0157*
%
%ADD29ROUNDEDRECTD29*%
%ADD30C,0.0512*%
%ADD31R,0.0512X0.1122*%
%ADD32R,0.0846X0.0827*%
%ADD33R,0.0492X0.0689*%
%ADD34R,0.0236X0.0866*%
%ADD35R,0.0610X0.0787*%
%ADD36R,0.0532X0.0433*%
%ADD37O,0.0217X0.0689*%
%ADD38O,0.0689X0.0217*%
%ADD39R,0.0768X0.0354*%
%ADD40R,0.0413X0.0768*%
%ADD41O,0.0236X0.0866*%
%ADD42R,0.0433X0.0354*%
%ADD43R,0.0689X0.0492*%
%ADD44C,0.0118*%
%ADD45C,0.0236*%
%ADD46C,0.0138*%
%ADD47C,0.0100*%
%ADD48C,0.0098*%
%ADD49C,0.0050*%
%ADD50C,0.0079*%
%ADD51R,0.0493X0.0651*%
%ADD52O,0.0986X0.0316*%
%ADD53R,0.0651X0.0493*%
%ADD54R,0.0907X0.0926*%
%ADD55R,0.0513X0.0612*%
%ADD56C,0.0789*%
%ADD57C,0.1261*%
%ADD58C,0.0749*%
G04:AMPARAMS|DCode=59|XSize=86.7mil|YSize=86.7mil|CornerRadius=23.7mil|HoleSize=0mil|Usage=FLASHONLY|Rotation=270.000|XOffset=0mil|YOffset=0mil|HoleType=Round|Shape=RoundedRectangle|*
%AMROUNDEDRECTD59*
21,1,0.0867,0.0394,0,0,270.0*
21,1,0.0394,0.0867,0,0,270.0*
1,1,0.0474,-0.0197,-0.0197*
1,1,0.0474,-0.0197,0.0197*
1,1,0.0474,0.0197,0.0197*
1,1,0.0474,0.0197,-0.0197*
%
%ADD59ROUNDEDRECTD59*%
%ADD60C,0.0867*%
G04:AMPARAMS|DCode=61|XSize=78.9mil|YSize=78.9mil|CornerRadius=21.7mil|HoleSize=0mil|Usage=FLASHONLY|Rotation=0.000|XOffset=0mil|YOffset=0mil|HoleType=Round|Shape=RoundedRectangle|*
%AMROUNDEDRECTD61*
21,1,0.0789,0.0354,0,0,0.0*
21,1,0.0354,0.0789,0,0,0.0*
1,1,0.0434,0.0177,-0.0177*
1,1,0.0434,-0.0177,-0.0177*
1,1,0.0434,-0.0177,0.0177*
1,1,0.0434,0.0177,0.0177*
%
%ADD61ROUNDEDRECTD61*%
G04:AMPARAMS|DCode=62|XSize=78.9mil|YSize=78.9mil|CornerRadius=21.7mil|HoleSize=0mil|Usage=FLASHONLY|Rotation=270.000|XOffset=0mil|YOffset=0mil|HoleType=Round|Shape=RoundedRectangle|*
%AMROUNDEDRECTD62*
21,1,0.0789,0.0354,0,0,270.0*
21,1,0.0354,0.0789,0,0,270.0*
1,1,0.0434,-0.0177,-0.0177*
1,1,0.0434,-0.0177,0.0177*
1,1,0.0434,0.0177,0.0177*
1,1,0.0434,0.0177,-0.0177*
%
%ADD62ROUNDEDRECTD62*%
%ADD63C,0.0671*%
%ADD64O,0.0867X0.0710*%
%ADD65C,0.0710*%
G04:AMPARAMS|DCode=66|XSize=71mil|YSize=71mil|CornerRadius=19.7mil|HoleSize=0mil|Usage=FLASHONLY|Rotation=180.000|XOffset=0mil|YOffset=0mil|HoleType=Round|Shape=RoundedRectangle|*
%AMROUNDEDRECTD66*
21,1,0.0710,0.0315,0,0,180.0*
21,1,0.0315,0.0710,0,0,180.0*
1,1,0.0395,-0.0157,0.0157*
1,1,0.0395,0.0157,0.0157*
1,1,0.0395,0.0157,-0.0157*
1,1,0.0395,-0.0157,-0.0157*
%
%ADD66ROUNDEDRECTD66*%
D51*
X20433Y30984D02*
D03*
X19646D02*
D03*
X14173Y27598D02*
D03*
X14961D02*
D03*
D52*
X19911Y31793D02*
D03*
Y32293D02*
D03*
Y32793D02*
D03*
Y33293D02*
D03*
Y33793D02*
D03*
Y34293D02*
D03*
Y34793D02*
D03*
Y35293D02*
D03*
X16309Y31793D02*
D03*
Y32293D02*
D03*
Y32793D02*
D03*
Y33293D02*
D03*
Y33793D02*
D03*
Y34293D02*
D03*
Y34793D02*
D03*
Y35293D02*
D03*
D53*
X15354Y32677D02*
D03*
Y31890D02*
D03*
D54*
X15994Y27480D02*
D03*
X17470D02*
D03*
D55*
X18780Y15748D02*
D03*
X17992D02*
D03*
X18780Y16535D02*
D03*
X17992D02*
D03*
X18780Y17323D02*
D03*
X17992D02*
D03*
X18780Y18110D02*
D03*
X17992D02*
D03*
X18780Y18898D02*
D03*
X17992D02*
D03*
X18780Y19685D02*
D03*
X17992D02*
D03*
X18780Y20472D02*
D03*
X17992D02*
D03*
X18780Y21260D02*
D03*
X17992D02*
D03*
X18780Y22047D02*
D03*
X17992D02*
D03*
X15748Y26102D02*
D03*
X14961D02*
D03*
X15748Y24134D02*
D03*
X14961D02*
D03*
X15748Y22165D02*
D03*
X14961D02*
D03*
X15748Y20197D02*
D03*
X14961D02*
D03*
X15748Y18228D02*
D03*
X14961D02*
D03*
X15748Y16260D02*
D03*
X14961D02*
D03*
X15748Y14291D02*
D03*
X14961D02*
D03*
X15748Y12323D02*
D03*
X14961D02*
D03*
X15748Y10630D02*
D03*
X14961D02*
D03*
D56*
X20433Y28031D02*
D03*
Y27032D02*
D03*
Y26031D02*
D03*
Y25031D02*
D03*
Y24032D02*
D03*
Y23031D02*
D03*
X23531Y32244D02*
D03*
X29472Y31614D02*
D03*
X31472D02*
D03*
X16496Y28909D02*
D03*
X25276Y24417D02*
D03*
Y26417D02*
D03*
D57*
X41929Y34283D02*
D03*
Y32283D02*
D03*
Y30283D02*
D03*
Y28283D02*
D03*
Y26283D02*
D03*
Y24283D02*
D03*
Y22283D02*
D03*
Y20283D02*
D03*
Y18283D02*
D03*
Y16283D02*
D03*
Y14283D02*
D03*
Y12283D02*
D03*
X11929Y12291D02*
D03*
Y14291D02*
D03*
Y16291D02*
D03*
Y18291D02*
D03*
Y20291D02*
D03*
Y22291D02*
D03*
Y24291D02*
D03*
Y26291D02*
D03*
Y28291D02*
D03*
Y30291D02*
D03*
Y32291D02*
D03*
Y34291D02*
D03*
D58*
X38870Y32244D02*
D03*
X39370Y34244D02*
D03*
X14831Y30669D02*
D03*
X14331Y28669D02*
D03*
D59*
X35394Y34110D02*
D03*
X26496Y31630D02*
D03*
X14409Y34291D02*
D03*
X28465Y27008D02*
D03*
X23110Y24409D02*
D03*
D60*
X35394Y32110D02*
D03*
X26496Y29630D02*
D03*
X14409Y33291D02*
D03*
X28465Y28008D02*
D03*
X22110Y24409D02*
D03*
X23110Y25409D02*
D03*
Y26409D02*
D03*
X30512Y12000D02*
D03*
X34512D02*
D03*
X37512D02*
D03*
X36512Y15000D02*
D03*
X30512D02*
D03*
Y16370D02*
D03*
X34512D02*
D03*
X37512D02*
D03*
X36512Y19370D02*
D03*
X30512D02*
D03*
Y20740D02*
D03*
X34512D02*
D03*
X37512D02*
D03*
X36512Y23740D02*
D03*
X30512D02*
D03*
Y25110D02*
D03*
X34512D02*
D03*
X37512D02*
D03*
X36512Y28110D02*
D03*
X30512D02*
D03*
D61*
X22531Y32244D02*
D03*
D62*
X16496Y29909D02*
D03*
D63*
X27559Y15000D02*
D03*
X26559D02*
D03*
X25559D02*
D03*
X24559D02*
D03*
X23559D02*
D03*
X22559D02*
D03*
X21559D02*
D03*
X20559D02*
D03*
Y12000D02*
D03*
X21559D02*
D03*
X22559D02*
D03*
X23559D02*
D03*
X24559D02*
D03*
X25559D02*
D03*
X26559D02*
D03*
X27559D02*
D03*
D64*
X22110Y25409D02*
D03*
Y26409D02*
D03*
D65*
X22835Y34646D02*
D03*
X23835D02*
D03*
X24835D02*
D03*
X26835D02*
D03*
D66*
X27835D02*
D03*
M02*
