%FSLAX24Y24*%
%MOIN*%
G70*
G01*
G75*
G04 Layer_Color=32896*
%ADD10R,0.0413X0.0571*%
%ADD11O,0.0906X0.0236*%
%ADD12R,0.0571X0.0413*%
%ADD13R,0.0827X0.0846*%
%ADD14R,0.0433X0.0532*%
%ADD15C,0.0197*%
%ADD16C,0.0394*%
%ADD17C,0.0295*%
%ADD18C,0.0591*%
%ADD19C,0.0709*%
%ADD20C,0.1181*%
%ADD21C,0.0669*%
G04:AMPARAMS|DCode=22|XSize=78.7mil|YSize=78.7mil|CornerRadius=19.7mil|HoleSize=0mil|Usage=FLASHONLY|Rotation=270.000|XOffset=0mil|YOffset=0mil|HoleType=Round|Shape=RoundedRectangle|*
%AMROUNDEDRECTD22*
21,1,0.0787,0.0394,0,0,270.0*
21,1,0.0394,0.0787,0,0,270.0*
1,1,0.0394,-0.0197,-0.0197*
1,1,0.0394,-0.0197,0.0197*
1,1,0.0394,0.0197,0.0197*
1,1,0.0394,0.0197,-0.0197*
%
%ADD22ROUNDEDRECTD22*%
%ADD23C,0.0787*%
G04:AMPARAMS|DCode=24|XSize=70.9mil|YSize=70.9mil|CornerRadius=17.7mil|HoleSize=0mil|Usage=FLASHONLY|Rotation=0.000|XOffset=0mil|YOffset=0mil|HoleType=Round|Shape=RoundedRectangle|*
%AMROUNDEDRECTD24*
21,1,0.0709,0.0354,0,0,0.0*
21,1,0.0354,0.0709,0,0,0.0*
1,1,0.0354,0.0177,-0.0177*
1,1,0.0354,-0.0177,-0.0177*
1,1,0.0354,-0.0177,0.0177*
1,1,0.0354,0.0177,0.0177*
%
%ADD24ROUNDEDRECTD24*%
G04:AMPARAMS|DCode=25|XSize=70.9mil|YSize=70.9mil|CornerRadius=17.7mil|HoleSize=0mil|Usage=FLASHONLY|Rotation=270.000|XOffset=0mil|YOffset=0mil|HoleType=Round|Shape=RoundedRectangle|*
%AMROUNDEDRECTD25*
21,1,0.0709,0.0354,0,0,270.0*
21,1,0.0354,0.0709,0,0,270.0*
1,1,0.0354,-0.0177,-0.0177*
1,1,0.0354,-0.0177,0.0177*
1,1,0.0354,0.0177,0.0177*
1,1,0.0354,0.0177,-0.0177*
%
%ADD25ROUNDEDRECTD25*%
%ADD26C,0.0591*%
%ADD27O,0.0787X0.0630*%
%ADD28C,0.0630*%
G04:AMPARAMS|DCode=29|XSize=63mil|YSize=63mil|CornerRadius=15.7mil|HoleSize=0mil|Usage=FLASHONLY|Rotation=180.000|XOffset=0mil|YOffset=0mil|HoleType=Round|Shape=RoundedRectangle|*
%AMROUNDEDRECTD29*
21,1,0.0630,0.0315,0,0,180.0*
21,1,0.0315,0.0630,0,0,180.0*
1,1,0.0315,-0.0157,0.0157*
1,1,0.0315,0.0157,0.0157*
1,1,0.0315,0.0157,-0.0157*
1,1,0.0315,-0.0157,-0.0157*
%
%ADD29ROUNDEDRECTD29*%
%ADD30C,0.0512*%
%ADD31R,0.0512X0.1122*%
%ADD32R,0.0846X0.0827*%
%ADD33R,0.0492X0.0689*%
%ADD34R,0.0236X0.0866*%
%ADD35R,0.0610X0.0787*%
%ADD36R,0.0532X0.0433*%
%ADD37O,0.0217X0.0689*%
%ADD38O,0.0689X0.0217*%
%ADD39R,0.0768X0.0354*%
%ADD40R,0.0413X0.0768*%
%ADD41O,0.0236X0.0866*%
%ADD42R,0.0433X0.0354*%
%ADD43R,0.0689X0.0492*%
%ADD44C,0.0118*%
%ADD45C,0.0236*%
%ADD46C,0.0138*%
%ADD47C,0.0100*%
%ADD48C,0.0098*%
%ADD49C,0.0050*%
%ADD50C,0.0079*%
%ADD51R,0.0493X0.0651*%
%ADD52O,0.0986X0.0316*%
%ADD53R,0.0651X0.0493*%
%ADD54R,0.0907X0.0926*%
%ADD55R,0.0513X0.0612*%
%ADD56C,0.0789*%
%ADD57C,0.1261*%
%ADD58C,0.0749*%
G04:AMPARAMS|DCode=59|XSize=86.7mil|YSize=86.7mil|CornerRadius=23.7mil|HoleSize=0mil|Usage=FLASHONLY|Rotation=270.000|XOffset=0mil|YOffset=0mil|HoleType=Round|Shape=RoundedRectangle|*
%AMROUNDEDRECTD59*
21,1,0.0867,0.0394,0,0,270.0*
21,1,0.0394,0.0867,0,0,270.0*
1,1,0.0474,-0.0197,-0.0197*
1,1,0.0474,-0.0197,0.0197*
1,1,0.0474,0.0197,0.0197*
1,1,0.0474,0.0197,-0.0197*
%
%ADD59ROUNDEDRECTD59*%
%ADD60C,0.0867*%
G04:AMPARAMS|DCode=61|XSize=78.9mil|YSize=78.9mil|CornerRadius=21.7mil|HoleSize=0mil|Usage=FLASHONLY|Rotation=0.000|XOffset=0mil|YOffset=0mil|HoleType=Round|Shape=RoundedRectangle|*
%AMROUNDEDRECTD61*
21,1,0.0789,0.0354,0,0,0.0*
21,1,0.0354,0.0789,0,0,0.0*
1,1,0.0434,0.0177,-0.0177*
1,1,0.0434,-0.0177,-0.0177*
1,1,0.0434,-0.0177,0.0177*
1,1,0.0434,0.0177,0.0177*
%
%ADD61ROUNDEDRECTD61*%
G04:AMPARAMS|DCode=62|XSize=78.9mil|YSize=78.9mil|CornerRadius=21.7mil|HoleSize=0mil|Usage=FLASHONLY|Rotation=270.000|XOffset=0mil|YOffset=0mil|HoleType=Round|Shape=RoundedRectangle|*
%AMROUNDEDRECTD62*
21,1,0.0789,0.0354,0,0,270.0*
21,1,0.0354,0.0789,0,0,270.0*
1,1,0.0434,-0.0177,-0.0177*
1,1,0.0434,-0.0177,0.0177*
1,1,0.0434,0.0177,0.0177*
1,1,0.0434,0.0177,-0.0177*
%
%ADD62ROUNDEDRECTD62*%
%ADD63C,0.0671*%
%ADD64O,0.0867X0.0710*%
%ADD65C,0.0710*%
G04:AMPARAMS|DCode=66|XSize=71mil|YSize=71mil|CornerRadius=19.7mil|HoleSize=0mil|Usage=FLASHONLY|Rotation=180.000|XOffset=0mil|YOffset=0mil|HoleType=Round|Shape=RoundedRectangle|*
%AMROUNDEDRECTD66*
21,1,0.0710,0.0315,0,0,180.0*
21,1,0.0315,0.0710,0,0,180.0*
1,1,0.0395,-0.0157,0.0157*
1,1,0.0395,0.0157,0.0157*
1,1,0.0395,0.0157,-0.0157*
1,1,0.0395,-0.0157,-0.0157*
%
%ADD66ROUNDEDRECTD66*%
%ADD67R,0.0592X0.1202*%
%ADD68R,0.0926X0.0907*%
%ADD69R,0.0572X0.0769*%
%ADD70R,0.0316X0.0946*%
%ADD71R,0.0690X0.0867*%
%ADD72R,0.0612X0.0513*%
%ADD73O,0.0297X0.0769*%
%ADD74O,0.0769X0.0297*%
%ADD75R,0.0848X0.0434*%
%ADD76R,0.0493X0.0848*%
%ADD77O,0.0316X0.0946*%
%ADD78R,0.0513X0.0434*%
%ADD79R,0.0769X0.0572*%
%ADD80C,0.0157*%
%ADD81R,0.0217X0.1043*%
D45*
X23169Y21988D02*
G03*
X23169Y21988I-118J0D01*
G01*
X16063Y27579D02*
G03*
X16063Y27579I-118J0D01*
G01*
Y25610D02*
G03*
X16063Y25610I-118J0D01*
G01*
Y23642D02*
G03*
X16063Y23642I-118J0D01*
G01*
Y21673D02*
G03*
X16063Y21673I-118J0D01*
G01*
Y19705D02*
G03*
X16063Y19705I-118J0D01*
G01*
Y17736D02*
G03*
X16063Y17736I-118J0D01*
G01*
Y15768D02*
G03*
X16063Y15768I-118J0D01*
G01*
Y13799D02*
G03*
X16063Y13799I-118J0D01*
G01*
Y11831D02*
G03*
X16063Y11831I-118J0D01*
G01*
D47*
X10424Y26614D02*
X10824D01*
X11024Y26414D01*
X10824Y26214D01*
X10424D01*
X11024Y26014D02*
X10424D01*
Y25714D01*
X10524Y25615D01*
X10724D01*
X10824Y25714D01*
Y26014D01*
Y25814D02*
X11024Y25615D01*
X10524Y25415D02*
X10424Y25315D01*
Y25115D01*
X10524Y25015D01*
X10624D01*
X10724Y25115D01*
X10824Y25015D01*
X10924D01*
X11024Y25115D01*
Y25315D01*
X10924Y25415D01*
X10824D01*
X10724Y25315D01*
X10624Y25415D01*
X10524D01*
X10724Y25315D02*
Y25115D01*
X10424Y24724D02*
X10824D01*
X11024Y24524D01*
X10824Y24325D01*
X10424D01*
X11024Y24125D02*
X10424D01*
Y23825D01*
X10524Y23725D01*
X10724D01*
X10824Y23825D01*
Y24125D01*
Y23925D02*
X11024Y23725D01*
X10424Y23525D02*
Y23125D01*
X10524D01*
X10924Y23525D01*
X11024D01*
X10424Y22835D02*
X10824D01*
X11024Y22635D01*
X10824Y22435D01*
X10424D01*
X11024Y22235D02*
X10424D01*
Y21935D01*
X10524Y21835D01*
X10724D01*
X10824Y21935D01*
Y22235D01*
Y22035D02*
X11024Y21835D01*
X10424Y21235D02*
X10524Y21435D01*
X10724Y21635D01*
X10924D01*
X11024Y21535D01*
Y21335D01*
X10924Y21235D01*
X10824D01*
X10724Y21335D01*
Y21635D01*
X10424Y20945D02*
X10824D01*
X11024Y20745D01*
X10824Y20545D01*
X10424D01*
X11024Y20345D02*
X10424D01*
Y20045D01*
X10524Y19945D01*
X10724D01*
X10824Y20045D01*
Y20345D01*
Y20145D02*
X11024Y19945D01*
X10424Y19345D02*
Y19745D01*
X10724D01*
X10624Y19545D01*
Y19445D01*
X10724Y19345D01*
X10924D01*
X11024Y19445D01*
Y19645D01*
X10924Y19745D01*
X10424Y18976D02*
X10824D01*
X11024Y18776D01*
X10824Y18577D01*
X10424D01*
X11024Y18377D02*
X10424D01*
Y18077D01*
X10524Y17977D01*
X10724D01*
X10824Y18077D01*
Y18377D01*
Y18177D02*
X11024Y17977D01*
Y17477D02*
X10424D01*
X10724Y17777D01*
Y17377D01*
X10424Y17047D02*
X10824D01*
X11024Y16847D01*
X10824Y16647D01*
X10424D01*
X11024Y16447D02*
X10424D01*
Y16148D01*
X10524Y16048D01*
X10724D01*
X10824Y16148D01*
Y16447D01*
Y16248D02*
X11024Y16048D01*
X10524Y15848D02*
X10424Y15748D01*
Y15548D01*
X10524Y15448D01*
X10624D01*
X10724Y15548D01*
Y15648D01*
Y15548D01*
X10824Y15448D01*
X10924D01*
X11024Y15548D01*
Y15748D01*
X10924Y15848D01*
X10424Y14961D02*
X10824D01*
X11024Y14761D01*
X10824Y14561D01*
X10424D01*
X11024Y14361D02*
X10424D01*
Y14061D01*
X10524Y13961D01*
X10724D01*
X10824Y14061D01*
Y14361D01*
Y14161D02*
X11024Y13961D01*
Y13361D02*
Y13761D01*
X10624Y13361D01*
X10524D01*
X10424Y13461D01*
Y13661D01*
X10524Y13761D01*
X10424Y12756D02*
X10824D01*
X11024Y12556D01*
X10824Y12356D01*
X10424D01*
X11024Y12156D02*
X10424D01*
Y11856D01*
X10524Y11756D01*
X10724D01*
X10824Y11856D01*
Y12156D01*
Y11956D02*
X11024Y11756D01*
Y11556D02*
Y11356D01*
Y11456D01*
X10424D01*
X10524Y11556D01*
X17205Y31230D02*
Y30730D01*
X17105Y30630D01*
X16905D01*
X16805Y30730D01*
Y31230D01*
X16205Y31130D02*
X16305Y31230D01*
X16505D01*
X16605Y31130D01*
Y30730D01*
X16505Y30630D01*
X16305D01*
X16205Y30730D01*
X16005Y31130D02*
X15905Y31230D01*
X15705D01*
X15605Y31130D01*
Y31030D01*
X15705Y30930D01*
X15805D01*
X15705D01*
X15605Y30830D01*
Y30730D01*
X15705Y30630D01*
X15905D01*
X16005Y30730D01*
X21969Y23553D02*
Y23053D01*
X21869Y22953D01*
X21669D01*
X21569Y23053D01*
Y23553D01*
X21369Y22953D02*
X21169D01*
X21269D01*
Y23553D01*
X21369Y23453D01*
X23976Y29291D02*
X23377D01*
Y28991D01*
X23477Y28891D01*
X23676D01*
X23776Y28991D01*
Y29291D01*
Y29091D02*
X23976Y28891D01*
Y28292D02*
Y28692D01*
X23577Y28292D01*
X23477D01*
X23377Y28392D01*
Y28592D01*
X23477Y28692D01*
X23876Y28092D02*
X23976Y27992D01*
Y27792D01*
X23876Y27692D01*
X23477D01*
X23377Y27792D01*
Y27992D01*
X23477Y28092D01*
X23577D01*
X23676Y27992D01*
Y27692D01*
X13425Y35551D02*
X12825D01*
Y35251D01*
X12925Y35151D01*
X13125D01*
X13225Y35251D01*
Y35551D01*
Y35351D02*
X13425Y35151D01*
Y34551D02*
Y34951D01*
X13025Y34551D01*
X12925D01*
X12825Y34651D01*
Y34851D01*
X12925Y34951D01*
Y34352D02*
X12825Y34252D01*
Y34052D01*
X12925Y33952D01*
X13025D01*
X13125Y34052D01*
X13225Y33952D01*
X13325D01*
X13425Y34052D01*
Y34252D01*
X13325Y34352D01*
X13225D01*
X13125Y34252D01*
X13025Y34352D01*
X12925D01*
X13125Y34252D02*
Y34052D01*
X16457Y34764D02*
Y35364D01*
X16157D01*
X16057Y35264D01*
Y35064D01*
X16157Y34964D01*
X16457D01*
X16257D02*
X16057Y34764D01*
X15457D02*
X15857D01*
X15457Y35164D01*
Y35264D01*
X15557Y35364D01*
X15757D01*
X15857Y35264D01*
X15257Y35364D02*
X14857D01*
Y35264D01*
X15257Y34864D01*
Y34764D01*
X14803Y31299D02*
Y31899D01*
X14503D01*
X14403Y31799D01*
Y31599D01*
X14503Y31499D01*
X14803D01*
X14603D02*
X14403Y31299D01*
X13803D02*
X14203D01*
X13803Y31699D01*
Y31799D01*
X13903Y31899D01*
X14103D01*
X14203Y31799D01*
X13204Y31899D02*
X13404Y31799D01*
X13604Y31599D01*
Y31399D01*
X13504Y31299D01*
X13304D01*
X13204Y31399D01*
Y31499D01*
X13304Y31599D01*
X13604D01*
X18780Y35551D02*
Y36151D01*
X18480D01*
X18380Y36051D01*
Y35851D01*
X18480Y35751D01*
X18780D01*
X18580D02*
X18380Y35551D01*
X17780D02*
X18180D01*
X17780Y35951D01*
Y36051D01*
X17880Y36151D01*
X18080D01*
X18180Y36051D01*
X17180Y36151D02*
X17580D01*
Y35851D01*
X17380Y35951D01*
X17280D01*
X17180Y35851D01*
Y35651D01*
X17280Y35551D01*
X17480D01*
X17580Y35651D01*
X21772Y34409D02*
Y35009D01*
X21472D01*
X21372Y34909D01*
Y34709D01*
X21472Y34609D01*
X21772D01*
X21572D02*
X21372Y34409D01*
X20772D02*
X21172D01*
X20772Y34809D01*
Y34909D01*
X20872Y35009D01*
X21072D01*
X21172Y34909D01*
X20272Y34409D02*
Y35009D01*
X20572Y34709D01*
X20172D01*
X22559Y31142D02*
Y31742D01*
X22259D01*
X22159Y31642D01*
Y31442D01*
X22259Y31342D01*
X22559D01*
X22359D02*
X22159Y31142D01*
X21559D02*
X21959D01*
X21559Y31542D01*
Y31642D01*
X21659Y31742D01*
X21859D01*
X21959Y31642D01*
X21359D02*
X21259Y31742D01*
X21060D01*
X20960Y31642D01*
Y31542D01*
X21060Y31442D01*
X21160D01*
X21060D01*
X20960Y31342D01*
Y31242D01*
X21060Y31142D01*
X21259D01*
X21359Y31242D01*
X25787Y33386D02*
Y33986D01*
X25487D01*
X25388Y33886D01*
Y33686D01*
X25487Y33586D01*
X25787D01*
X25587D02*
X25388Y33386D01*
X24788D02*
X25188D01*
X24788Y33786D01*
Y33886D01*
X24888Y33986D01*
X25088D01*
X25188Y33886D01*
X24188Y33386D02*
X24588D01*
X24188Y33786D01*
Y33886D01*
X24288Y33986D01*
X24488D01*
X24588Y33886D01*
X31339Y35945D02*
X30739D01*
Y35645D01*
X30839Y35545D01*
X31039D01*
X31139Y35645D01*
Y35945D01*
Y35745D02*
X31339Y35545D01*
Y34945D02*
Y35345D01*
X30939Y34945D01*
X30839D01*
X30739Y35045D01*
Y35245D01*
X30839Y35345D01*
X31339Y34745D02*
Y34545D01*
Y34645D01*
X30739D01*
X30839Y34745D01*
X30512Y35945D02*
X29912D01*
Y35645D01*
X30012Y35545D01*
X30212D01*
X30312Y35645D01*
Y35945D01*
Y35745D02*
X30512Y35545D01*
Y34945D02*
Y35345D01*
X30112Y34945D01*
X30012D01*
X29912Y35045D01*
Y35245D01*
X30012Y35345D01*
Y34745D02*
X29912Y34645D01*
Y34445D01*
X30012Y34345D01*
X30412D01*
X30512Y34445D01*
Y34645D01*
X30412Y34745D01*
X30012D01*
X36772Y35669D02*
Y36269D01*
X36472D01*
X36372Y36169D01*
Y35969D01*
X36472Y35869D01*
X36772D01*
X36572D02*
X36372Y35669D01*
X36172D02*
X35972D01*
X36072D01*
Y36269D01*
X36172Y36169D01*
X35672Y35769D02*
X35572Y35669D01*
X35372D01*
X35272Y35769D01*
Y36169D01*
X35372Y36269D01*
X35572D01*
X35672Y36169D01*
Y36069D01*
X35572Y35969D01*
X35272D01*
X14291Y27520D02*
Y28119D01*
X13991D01*
X13891Y28020D01*
Y27820D01*
X13991Y27720D01*
X14291D01*
X14091D02*
X13891Y27520D01*
X13692D02*
X13492D01*
X13592D01*
Y28119D01*
X13692Y28020D01*
X13192Y28119D02*
X12792D01*
Y28020D01*
X13192Y27620D01*
Y27520D01*
X12598Y25000D02*
Y25600D01*
X12299D01*
X12199Y25500D01*
Y25300D01*
X12299Y25200D01*
X12598D01*
X12398D02*
X12199Y25000D01*
X11999D02*
X11799D01*
X11899D01*
Y25600D01*
X11999Y25500D01*
X11099Y25600D02*
X11499D01*
Y25300D01*
X11299Y25400D01*
X11199D01*
X11099Y25300D01*
Y25100D01*
X11199Y25000D01*
X11399D01*
X11499Y25100D01*
X12598Y22953D02*
Y23553D01*
X12299D01*
X12199Y23453D01*
Y23253D01*
X12299Y23153D01*
X12598D01*
X12398D02*
X12199Y22953D01*
X11999D02*
X11799D01*
X11899D01*
Y23553D01*
X11999Y23453D01*
X11499D02*
X11399Y23553D01*
X11199D01*
X11099Y23453D01*
Y23353D01*
X11199Y23253D01*
X11299D01*
X11199D01*
X11099Y23153D01*
Y23053D01*
X11199Y22953D01*
X11399D01*
X11499Y23053D01*
X12598Y21024D02*
Y21623D01*
X12299D01*
X12199Y21523D01*
Y21324D01*
X12299Y21224D01*
X12598D01*
X12398D02*
X12199Y21024D01*
X11999D02*
X11799D01*
X11899D01*
Y21623D01*
X11999Y21523D01*
X11499Y21024D02*
X11299D01*
X11399D01*
Y21623D01*
X11499Y21523D01*
X12402Y18976D02*
Y19576D01*
X12102D01*
X12002Y19476D01*
Y19276D01*
X12102Y19176D01*
X12402D01*
X12202D02*
X12002Y18976D01*
X11802Y19076D02*
X11702Y18976D01*
X11502D01*
X11402Y19076D01*
Y19476D01*
X11502Y19576D01*
X11702D01*
X11802Y19476D01*
Y19376D01*
X11702Y19276D01*
X11402D01*
X12441Y17008D02*
Y17608D01*
X12141D01*
X12041Y17508D01*
Y17308D01*
X12141Y17208D01*
X12441D01*
X12241D02*
X12041Y17008D01*
X11841Y17608D02*
X11441D01*
Y17508D01*
X11841Y17108D01*
Y17008D01*
X12402Y15000D02*
Y15600D01*
X12102D01*
X12002Y15500D01*
Y15300D01*
X12102Y15200D01*
X12402D01*
X12202D02*
X12002Y15000D01*
X11402Y15600D02*
X11802D01*
Y15300D01*
X11602Y15400D01*
X11502D01*
X11402Y15300D01*
Y15100D01*
X11502Y15000D01*
X11702D01*
X11802Y15100D01*
X12402Y12992D02*
Y13592D01*
X12102D01*
X12002Y13492D01*
Y13292D01*
X12102Y13192D01*
X12402D01*
X12202D02*
X12002Y12992D01*
X11802Y13492D02*
X11702Y13592D01*
X11502D01*
X11402Y13492D01*
Y13392D01*
X11502Y13292D01*
X11602D01*
X11502D01*
X11402Y13192D01*
Y13092D01*
X11502Y12992D01*
X11702D01*
X11802Y13092D01*
X12402Y10945D02*
Y11545D01*
X12102D01*
X12002Y11445D01*
Y11245D01*
X12102Y11145D01*
X12402D01*
X12202D02*
X12002Y10945D01*
X11802D02*
X11602D01*
X11702D01*
Y11545D01*
X11802Y11445D01*
X19306Y28080D02*
X19506D01*
X19606Y27980D01*
Y27580D01*
X19506Y27480D01*
X19306D01*
X19206Y27580D01*
Y27980D01*
X19306Y28080D01*
X19006Y27480D02*
Y28080D01*
X18707D01*
X18607Y27980D01*
Y27780D01*
X18707Y27680D01*
X19006D01*
X18407Y27580D02*
X18307Y27480D01*
X18107D01*
X18007Y27580D01*
Y27980D01*
X18107Y28080D01*
X18307D01*
X18407Y27980D01*
Y27880D01*
X18307Y27780D01*
X18007D01*
X19306Y26072D02*
X19506D01*
X19606Y25972D01*
Y25572D01*
X19506Y25472D01*
X19306D01*
X19206Y25572D01*
Y25972D01*
X19306Y26072D01*
X19006Y25472D02*
Y26072D01*
X18707D01*
X18607Y25972D01*
Y25772D01*
X18707Y25672D01*
X19006D01*
X18407Y25972D02*
X18307Y26072D01*
X18107D01*
X18007Y25972D01*
Y25872D01*
X18107Y25772D01*
X18007Y25672D01*
Y25572D01*
X18107Y25472D01*
X18307D01*
X18407Y25572D01*
Y25672D01*
X18307Y25772D01*
X18407Y25872D01*
Y25972D01*
X18307Y25772D02*
X18107D01*
X19306Y24104D02*
X19506D01*
X19606Y24004D01*
Y23604D01*
X19506Y23504D01*
X19306D01*
X19206Y23604D01*
Y24004D01*
X19306Y24104D01*
X19006Y23504D02*
Y24104D01*
X18707D01*
X18607Y24004D01*
Y23804D01*
X18707Y23704D01*
X19006D01*
X18407Y24104D02*
X18007D01*
Y24004D01*
X18407Y23604D01*
Y23504D01*
X18044Y22159D02*
Y22359D01*
X18143Y22459D01*
X18543D01*
X18643Y22359D01*
Y22159D01*
X18543Y22059D01*
X18143D01*
X18044Y22159D01*
X18643Y21859D02*
X18044D01*
Y21559D01*
X18143Y21459D01*
X18343D01*
X18443Y21559D01*
Y21859D01*
X18044Y20860D02*
X18143Y21060D01*
X18343Y21259D01*
X18543D01*
X18643Y21159D01*
Y20960D01*
X18543Y20860D01*
X18443D01*
X18343Y20960D01*
Y21259D01*
X18062Y20291D02*
Y20491D01*
X18162Y20591D01*
X18561D01*
X18661Y20491D01*
Y20291D01*
X18561Y20191D01*
X18162D01*
X18062Y20291D01*
X18661Y19991D02*
X18062D01*
Y19691D01*
X18162Y19591D01*
X18362D01*
X18461Y19691D01*
Y19991D01*
X18062Y18991D02*
Y19391D01*
X18362D01*
X18262Y19191D01*
Y19091D01*
X18362Y18991D01*
X18561D01*
X18661Y19091D01*
Y19291D01*
X18561Y19391D01*
X18022Y18401D02*
Y18601D01*
X18122Y18701D01*
X18522D01*
X18622Y18601D01*
Y18401D01*
X18522Y18301D01*
X18122D01*
X18022Y18401D01*
X18622Y18101D02*
X18022D01*
Y17801D01*
X18122Y17701D01*
X18322D01*
X18422Y17801D01*
Y18101D01*
X18622Y17201D02*
X18022D01*
X18322Y17501D01*
Y17101D01*
X18022Y16472D02*
Y16672D01*
X18122Y16772D01*
X18522D01*
X18622Y16672D01*
Y16472D01*
X18522Y16372D01*
X18122D01*
X18022Y16472D01*
X18622Y16172D02*
X18022D01*
Y15872D01*
X18122Y15772D01*
X18322D01*
X18422Y15872D01*
Y16172D01*
X18122Y15572D02*
X18022Y15472D01*
Y15272D01*
X18122Y15172D01*
X18222D01*
X18322Y15272D01*
Y15372D01*
Y15272D01*
X18422Y15172D01*
X18522D01*
X18622Y15272D01*
Y15472D01*
X18522Y15572D01*
X19346Y14301D02*
X19546D01*
X19646Y14201D01*
Y13801D01*
X19546Y13701D01*
X19346D01*
X19246Y13801D01*
Y14201D01*
X19346Y14301D01*
X19046Y13701D02*
Y14301D01*
X18746D01*
X18646Y14201D01*
Y14001D01*
X18746Y13901D01*
X19046D01*
X18046Y13701D02*
X18446D01*
X18046Y14101D01*
Y14201D01*
X18146Y14301D01*
X18346D01*
X18446Y14201D01*
X19149Y12253D02*
X19349D01*
X19449Y12153D01*
Y11754D01*
X19349Y11654D01*
X19149D01*
X19049Y11754D01*
Y12153D01*
X19149Y12253D01*
X18849Y11654D02*
Y12253D01*
X18549D01*
X18449Y12153D01*
Y11953D01*
X18549Y11853D01*
X18849D01*
X18249Y11654D02*
X18049D01*
X18149D01*
Y12253D01*
X18249Y12153D01*
X33976Y36348D02*
X33776D01*
X33876D01*
Y35748D01*
X33976D01*
X33776D01*
X33077Y36248D02*
X33177Y36348D01*
X33377D01*
X33477Y36248D01*
Y35848D01*
X33377Y35748D01*
X33177D01*
X33077Y35848D01*
X32877Y35748D02*
X32677D01*
X32777D01*
Y36348D01*
X32877Y36248D01*
X16457Y32057D02*
Y31457D01*
X16157D01*
X16057Y31557D01*
Y31957D01*
X16157Y32057D01*
X16457D01*
X15857Y31457D02*
X15657D01*
X15757D01*
Y32057D01*
X15857Y31957D01*
X15057Y31457D02*
Y32057D01*
X15357Y31757D01*
X14957D01*
X32235Y32165D02*
X32835D01*
Y31865D01*
X32735Y31765D01*
X32335D01*
X32235Y31865D01*
Y32165D01*
X32835Y31566D02*
Y31366D01*
Y31466D01*
X32235D01*
X32335Y31566D01*
Y31066D02*
X32235Y30966D01*
Y30766D01*
X32335Y30666D01*
X32435D01*
X32535Y30766D01*
Y30866D01*
Y30766D01*
X32635Y30666D01*
X32735D01*
X32835Y30766D01*
Y30966D01*
X32735Y31066D01*
X36487Y31772D02*
X37087D01*
Y31472D01*
X36987Y31372D01*
X36587D01*
X36487Y31472D01*
Y31772D01*
X37087Y31172D02*
Y30972D01*
Y31072D01*
X36487D01*
X36587Y31172D01*
X37087Y30272D02*
Y30672D01*
X36687Y30272D01*
X36587D01*
X36487Y30372D01*
Y30572D01*
X36587Y30672D01*
X39843Y35442D02*
Y34843D01*
X39543D01*
X39443Y34942D01*
Y35342D01*
X39543Y35442D01*
X39843D01*
X39243Y34843D02*
X39043D01*
X39143D01*
Y35442D01*
X39243Y35342D01*
X38743Y34843D02*
X38543D01*
X38643D01*
Y35442D01*
X38743Y35342D01*
X28358Y21254D02*
X28258Y21354D01*
Y21554D01*
X28358Y21654D01*
X28758D01*
X28858Y21554D01*
Y21354D01*
X28758Y21254D01*
X28858Y21054D02*
Y20854D01*
Y20954D01*
X28258D01*
X28358Y21054D01*
X28258Y20154D02*
X28358Y20354D01*
X28558Y20554D01*
X28758D01*
X28858Y20454D01*
Y20254D01*
X28758Y20154D01*
X28658D01*
X28558Y20254D01*
Y20554D01*
X19973Y21175D02*
X19873Y21275D01*
Y21475D01*
X19973Y21575D01*
X20372D01*
X20472Y21475D01*
Y21275D01*
X20372Y21175D01*
X20472Y20975D02*
Y20775D01*
Y20875D01*
X19873D01*
X19973Y20975D01*
X19873Y20075D02*
Y20475D01*
X20173D01*
X20073Y20275D01*
Y20175D01*
X20173Y20075D01*
X20372D01*
X20472Y20175D01*
Y20375D01*
X20372Y20475D01*
X27435Y25421D02*
X27535Y25521D01*
X27735D01*
X27835Y25421D01*
Y25021D01*
X27735Y24921D01*
X27535D01*
X27435Y25021D01*
X27235Y24921D02*
X27035D01*
X27135D01*
Y25521D01*
X27235Y25421D01*
X26435Y24921D02*
Y25521D01*
X26735Y25221D01*
X26335D01*
X25860Y28138D02*
X25960Y28238D01*
X26160D01*
X26260Y28138D01*
Y27738D01*
X26160Y27638D01*
X25960D01*
X25860Y27738D01*
X25660Y27638D02*
X25460D01*
X25560D01*
Y28238D01*
X25660Y28138D01*
X25160D02*
X25060Y28238D01*
X24860D01*
X24760Y28138D01*
Y28038D01*
X24860Y27938D01*
X24960D01*
X24860D01*
X24760Y27838D01*
Y27738D01*
X24860Y27638D01*
X25060D01*
X25160Y27738D01*
X21784Y28891D02*
X21684Y28991D01*
Y29191D01*
X21784Y29291D01*
X22183D01*
X22283Y29191D01*
Y28991D01*
X22183Y28891D01*
X22283Y28692D02*
Y28492D01*
Y28592D01*
X21684D01*
X21784Y28692D01*
X22283Y27792D02*
Y28192D01*
X21884Y27792D01*
X21784D01*
X21684Y27892D01*
Y28092D01*
X21784Y28192D01*
X21765Y33453D02*
X21865Y33553D01*
X22065D01*
X22165Y33453D01*
Y33053D01*
X22065Y32953D01*
X21865D01*
X21765Y33053D01*
X21566Y32953D02*
X21366D01*
X21466D01*
Y33553D01*
X21566Y33453D01*
X21066Y32953D02*
X20866D01*
X20966D01*
Y33553D01*
X21066Y33453D01*
X24718Y35657D02*
X24818Y35757D01*
X25018D01*
X25118Y35657D01*
Y35257D01*
X25018Y35157D01*
X24818D01*
X24718Y35257D01*
X24518Y35657D02*
X24418Y35757D01*
X24218D01*
X24118Y35657D01*
Y35557D01*
X24218Y35457D01*
X24118Y35357D01*
Y35257D01*
X24218Y35157D01*
X24418D01*
X24518Y35257D01*
Y35357D01*
X24418Y35457D01*
X24518Y35557D01*
Y35657D01*
X24418Y35457D02*
X24218D01*
X28713Y30702D02*
X28613Y30802D01*
Y31002D01*
X28713Y31102D01*
X29113D01*
X29213Y31002D01*
Y30802D01*
X29113Y30702D01*
X28613Y30103D02*
X28713Y30303D01*
X28913Y30503D01*
X29113D01*
X29213Y30403D01*
Y30203D01*
X29113Y30103D01*
X29013D01*
X28913Y30203D01*
Y30503D01*
X31705Y35545D02*
X31605Y35645D01*
Y35845D01*
X31705Y35945D01*
X32105D01*
X32205Y35845D01*
Y35645D01*
X32105Y35545D01*
X32205Y35045D02*
X31605D01*
X31905Y35345D01*
Y34945D01*
X35169Y31017D02*
X35069Y31117D01*
Y31317D01*
X35169Y31417D01*
X35569D01*
X35669Y31317D01*
Y31117D01*
X35569Y31017D01*
X35169Y30818D02*
X35069Y30718D01*
Y30518D01*
X35169Y30418D01*
X35269D01*
X35369Y30518D01*
Y30618D01*
Y30518D01*
X35469Y30418D01*
X35569D01*
X35669Y30518D01*
Y30718D01*
X35569Y30818D01*
D48*
X36142Y34350D02*
G03*
X36142Y34350I-49J0D01*
G01*
X34480Y33179D02*
G03*
X34480Y33179I-49J0D01*
G01*
X34154Y32539D02*
G03*
X34154Y32539I-49J0D01*
G01*
X22520Y22894D02*
G03*
X22520Y22894I-49J0D01*
G01*
X15059Y27171D02*
G03*
X15059Y27171I-49J0D01*
G01*
Y25203D02*
G03*
X15059Y25203I-49J0D01*
G01*
Y23234D02*
G03*
X15059Y23234I-49J0D01*
G01*
Y21266D02*
G03*
X15059Y21266I-49J0D01*
G01*
Y19297D02*
G03*
X15059Y19297I-49J0D01*
G01*
Y17329D02*
G03*
X15059Y17329I-49J0D01*
G01*
Y15360D02*
G03*
X15059Y15360I-49J0D01*
G01*
Y13392D02*
G03*
X15059Y13392I-49J0D01*
G01*
Y11423D02*
G03*
X15059Y11423I-49J0D01*
G01*
X19362Y31496D02*
G03*
X19362Y31496I-49J0D01*
G01*
X15374Y32382D02*
G03*
X15374Y32382I-49J0D01*
G01*
D50*
X38622Y33750D02*
X39646D01*
X38622Y32707D02*
X39646D01*
X38622D02*
Y33750D01*
X37313Y32205D02*
X37480D01*
X37313Y34094D02*
X37480D01*
X35984Y32205D02*
X36152D01*
X35984Y34094D02*
X36152D01*
X37480Y32205D02*
Y34094D01*
X35984Y32205D02*
Y34094D01*
X35827Y34852D02*
X36142D01*
X35827Y35463D02*
X36142D01*
X32362Y33770D02*
Y34498D01*
X34331Y33770D02*
Y34498D01*
X32362D02*
X34331D01*
X32362Y33770D02*
X34331D01*
X35640Y33031D02*
Y33110D01*
X35148Y33031D02*
Y33110D01*
X33012Y32283D02*
X33120D01*
X33012Y30472D02*
X33120D01*
X34045Y32283D02*
X34154D01*
X34045Y30472D02*
X34154D01*
X33012D02*
Y32283D01*
X34154Y30472D02*
Y32283D01*
X32057Y33504D02*
Y33583D01*
X31565Y33504D02*
Y33583D01*
X31211Y33524D02*
Y33563D01*
X30758Y33524D02*
Y33563D01*
X29970Y33524D02*
Y33563D01*
X30423Y33524D02*
Y33563D01*
X28356Y30591D02*
Y30669D01*
X27864Y30591D02*
Y30669D01*
X28081Y20827D02*
Y20906D01*
X27589Y20827D02*
Y20906D01*
X20659Y20827D02*
Y20906D01*
X21152Y20827D02*
Y20906D01*
X25472Y25443D02*
X25551D01*
X25472Y24951D02*
X25551D01*
X25472Y27451D02*
X25551D01*
X25472Y26959D02*
X25551D01*
X23681Y26978D02*
X23720D01*
X23681Y27431D02*
X23720D01*
X21890Y26959D02*
X21969D01*
X21890Y27451D02*
X21969D01*
X22657Y22382D02*
X26083D01*
X22657Y18957D02*
X26083D01*
X22657D02*
Y22382D01*
X26083Y18957D02*
Y22382D01*
X15551Y28327D02*
X16890D01*
X15551Y27185D02*
X16890D01*
Y28327D01*
X15551Y27185D02*
Y28327D01*
Y26358D02*
X16890D01*
X15551Y25217D02*
X16890D01*
Y26358D01*
X15551Y25217D02*
Y26358D01*
Y24390D02*
X16890D01*
X15551Y23248D02*
X16890D01*
Y24390D01*
X15551Y23248D02*
Y24390D01*
Y22421D02*
X16890D01*
X15551Y21280D02*
X16890D01*
Y22421D01*
X15551Y21280D02*
Y22421D01*
Y20453D02*
X16890D01*
X15551Y19311D02*
X16890D01*
Y20453D01*
X15551Y19311D02*
Y20453D01*
Y18484D02*
X16890D01*
X15551Y17343D02*
X16890D01*
Y18484D01*
X15551Y17343D02*
Y18484D01*
Y16516D02*
X16890D01*
X15551Y15374D02*
X16890D01*
Y16516D01*
X15551Y15374D02*
Y16516D01*
Y14547D02*
X16890D01*
X15551Y13406D02*
X16890D01*
Y14547D01*
X15551Y13406D02*
Y14547D01*
Y12579D02*
X16890D01*
X15551Y11437D02*
X16890D01*
Y12579D01*
X15551Y11437D02*
Y12579D01*
X13386Y10955D02*
X13701D01*
X13386Y11565D02*
X13701D01*
X13307Y12589D02*
X13858D01*
X13307Y11900D02*
X13858D01*
Y12589D01*
X13307Y11900D02*
Y12589D01*
X13386Y12923D02*
X13701D01*
X13386Y13533D02*
X13701D01*
X13307Y14557D02*
X13858D01*
X13307Y13868D02*
X13858D01*
Y14557D01*
X13307Y13868D02*
Y14557D01*
X13386Y14892D02*
X13701D01*
X13386Y15502D02*
X13701D01*
X13307Y16526D02*
X13858D01*
X13307Y15837D02*
X13858D01*
Y16526D01*
X13307Y15837D02*
Y16526D01*
X13386Y16860D02*
X13701D01*
X13386Y17470D02*
X13701D01*
X13307Y18494D02*
X13858D01*
X13307Y17805D02*
X13858D01*
Y18494D01*
X13307Y17805D02*
Y18494D01*
X13386Y18829D02*
X13701D01*
X13386Y19439D02*
X13701D01*
X13307Y20463D02*
X13858D01*
X13307Y19774D02*
X13858D01*
Y20463D01*
X13307Y19774D02*
Y20463D01*
X13386Y20797D02*
X13701D01*
X13386Y21407D02*
X13701D01*
X13307Y22431D02*
X13858D01*
X13307Y21742D02*
X13858D01*
Y22431D01*
X13307Y21742D02*
Y22431D01*
X13386Y22766D02*
X13701D01*
X13386Y23376D02*
X13701D01*
X13307Y24400D02*
X13858D01*
X13307Y23711D02*
X13858D01*
Y24400D01*
X13307Y23711D02*
Y24400D01*
X13386Y24734D02*
X13701D01*
X13386Y25344D02*
X13701D01*
X13307Y26368D02*
X13858D01*
X13307Y25679D02*
X13858D01*
Y26368D01*
X13307Y25679D02*
Y26368D01*
X13386Y26703D02*
X13701D01*
X13386Y27313D02*
X13701D01*
X17244Y32087D02*
Y32795D01*
X19213Y32087D02*
Y32795D01*
X17244D02*
X19213D01*
X17244Y32087D02*
X19213D01*
X20138Y31762D02*
X20177D01*
X20138Y31309D02*
X20177D01*
X15689Y34065D02*
X15728D01*
X15689Y34518D02*
X15728D01*
X16102Y32598D02*
Y32854D01*
Y33524D02*
Y33780D01*
X14272Y32057D02*
X14311D01*
X14272Y32510D02*
X14311D01*
X13415Y32677D02*
Y32992D01*
X12805Y32677D02*
Y32992D01*
X23189Y35837D02*
X23268D01*
X23189Y35344D02*
X23268D01*
X22953Y33396D02*
X23268D01*
X22953Y34006D02*
X23268D01*
X20197Y33140D02*
X20276D01*
X20197Y33632D02*
X20276D01*
X19429Y34459D02*
X19468D01*
X19429Y34911D02*
X19468D01*
X17972D02*
X18012D01*
X17972Y34459D02*
X18012D01*
D80*
X34094Y34085D02*
G03*
X34094Y34085I-79J0D01*
G01*
D81*
X38730Y33228D02*
D03*
M02*
