M48
;Layer_Color=9474304
;FILE_FORMAT=2:4
INCH,LZ
;TYPE=PLATED
T1F00S00C0.0276
T2F00S00C0.0315
T3F00S00C0.0394
T4F00S00C0.0512
T5F00S00C0.0591
%
T01
X014961Y01126
Y013228
Y015197
X031693Y030669
X027559Y028504
X027598Y027441
X027087Y026969
X025787Y022087
X022953
Y019252
X019449Y018898
Y019685
Y020472
Y02126
Y022047
X018898Y023031
X019449Y01811
Y017323
Y016535
Y015748
X019016Y030472
X018228
X01748
X014961Y027008
Y025039
Y023071
Y021102
Y019134
Y017165
X017087Y035276
T02
X020559Y012
X021559
X022559
X023559
X024559
X025559
X026559
X027559
Y015
X026559
X025559
X024559
X023559
X022559
X021559
X020559
X025276Y024417
Y026417
X016496Y028909
Y029909
X014831Y030669
X014331Y028669
X022531Y032244
X023531
X023835Y034646
X022835
X024835
X026835
X027835
X03937Y034244
X03887Y032244
T03
X020433Y023031
Y024032
Y025031
Y026031
Y027032
Y028031
X02211Y026409
Y025409
Y024409
X02311
Y025409
Y026409
X028465Y027008
Y028008
X026496Y02963
X014409Y033291
Y034291
X026496Y03163
X029472Y031614
X031472
X035394Y03211
Y03411
T04
X030512Y012
Y015
X036512
X037512Y012
X034512
Y01637
X037512
X036512Y01937
X037512Y02074
X034512
Y02511
X037512
X036512Y02374
Y02811
X030512
Y02511
Y02374
Y02074
Y01937
Y01637
T05
X011929Y012291
Y014291
X041929Y014283
Y012283
Y016283
Y018283
Y020283
Y022283
Y024283
Y026283
Y028283
Y030283
X011929Y030291
Y028291
Y026291
Y024291
Y022291
Y020291
Y018291
Y016291
Y032291
Y034291
X041929Y034283
Y032283
M30
